<svg id="Layer_1" data-name="Layer 1" xmlns="http://www.w3.org/2000/svg" xmlns:xlink="http://www.w3.org/1999/xlink" viewBox="0 0 2000 2000"><defs><linearGradient id="linear-gradient" x1="1000.26" y1="639.93" x2="1000.26" y2="1359.93" gradientUnits="userSpaceOnUse"><stop offset="0" stop-color="#f7e4c0"/><stop offset="0.33" stop-color="#d4b08c"/><stop offset="0.66" stop-color="#b88644"/><stop offset="1" stop-color="#9a6a31"/></linearGradient></defs><rect width="2000" height="2000" style="fill:#2c1d23"/><path d="M1425.84,719.93h-76.92v-80h76.92Zm-230.77,400H1041.22v80H1272v-400h-76.92Zm-76.92-240H887.38v480H964.3v-400h153.85Zm-307.7,400H579.68v-320H810.45v-80H579.68v-240H502.76v640H425.84v80H810.45Zm461.54-640H656.61v80H1272Zm-928.09,160v400h80v-400Zm1081.94,0h-76.92v400h76.92Zm230.77,0h-76.93v480H1348.92v80h307.69Zm-461.54,560H1272v-80h-76.92Z" style="fill:url(#linear-gradient)"/></svg>